<?xml version="1.0" standalone="no"?>
<!DOCTYPE svg PUBLIC "-//W3C//DTD SVG 20010904//EN"
 "http://www.w3.org/TR/2001/REC-SVG-20010904/DTD/svg10.dtd">
<svg version="1.0" xmlns="http://www.w3.org/2000/svg"
 width="225.000000pt" height="225.000000pt" viewBox="0 0 225.000000 225.000000"
 preserveAspectRatio="xMidYMid meet">

<g transform="translate(0.000000,225.000000) scale(0.100000,-0.100000)"
fill="#000000" stroke="none">
<path d="M242 1823 c-34 -7 -90 -68 -98 -107 -8 -46 10 -96 47 -132 l30 -29
904 0 904 0 30 29 c37 36 55 86 47 132 -9 43 -63 99 -106 108 -36 7 -1721 6
-1758 -1z"/>
<path d="M208 1244 c-32 -17 -68 -81 -68 -119 0 -40 37 -103 70 -120 25 -13
142 -15 915 -15 988 0 927 -4 965 70 25 50 25 80 0 130 -38 74 23 70 -967 70
-767 -1 -892 -3 -915 -16z"/>
<path d="M230 693 c-54 -20 -97 -99 -86 -159 9 -43 63 -99 106 -108 42 -8
1708 -8 1750 0 43 9 97 65 106 108 8 46 -10 96 -47 132 l-30 29 -892 2 c-491
1 -899 -1 -907 -4z"/>
</g>
</svg>
