<?xml version="1.0" standalone="no"?>
<!DOCTYPE svg PUBLIC "-//W3C//DTD SVG 20010904//EN"
 "http://www.w3.org/TR/2001/REC-SVG-20010904/DTD/svg10.dtd">
<svg version="1.0" xmlns="http://www.w3.org/2000/svg"
 width="860.000000pt" height="1361.000000pt" viewBox="0 0 860.000000 1361.000000"
 preserveAspectRatio="xMidYMid meet">

<g transform="translate(0.000000,1361.000000) scale(0.100000,-0.100000)"
fill="#000000" stroke="none">
<path d="M4071 13189 c-940 -99 -1747 -833 -1985 -1807 -77 -314 -71 -68 -71
-2977 0 -2912 -6 -2667 72 -2980 175 -701 638 -1286 1258 -1590 752 -368 1611
-279 2295 238 113 86 312 281 400 392 223 281 387 615 473 960 78 313 72 68
72 2980 0 2912 6 2667 -72 2980 -176 706 -640 1290 -1267 1595 -364 177 -776
250 -1175 209z m509 -545 c52 -9 155 -36 229 -60 452 -148 823 -481 1046 -939
109 -223 172 -454 195 -710 8 -83 10 -895 7 -2615 l-3 -2495 -22 -115 c-30
-153 -54 -242 -103 -375 -173 -464 -513 -841 -941 -1039 -634 -294 -1370 -156
-1878 353 -293 294 -473 654 -547 1096 -17 105 -18 230 -18 2660 0 2361 1
2558 17 2655 65 397 222 737 470 1020 293 333 683 536 1123 584 77 8 331 -3
425 -20z"/>
<path d="M1315 8455 c-54 -19 -119 -92 -134 -149 -14 -59 -16 -3076 -1 -3246
34 -389 175 -745 432 -1088 85 -114 317 -349 438 -446 519 -414 1219 -678
1938 -732 l92 -7 0 -978 0 -979 -615 0 -615 0 0 -215 0 -215 1450 0 1450 0 0
215 0 215 -615 0 -615 0 0 978 0 977 173 17 c701 69 1366 329 1857 725 510
411 819 955 869 1528 16 177 15 3191 -1 3252 -22 87 -119 163 -209 163 -75 0
-169 -63 -202 -138 -9 -21 -13 -422 -17 -1682 -6 -1836 0 -1675 -72 -1900
-165 -517 -627 -979 -1258 -1258 -307 -135 -654 -224 -1025 -263 -145 -15
-519 -15 -670 0 -665 67 -1259 306 -1700 683 -330 282 -536 609 -628 993 -21
90 -21 97 -27 1745 -4 1260 -8 1661 -17 1682 -22 50 -82 106 -130 122 -56 19
-95 20 -148 1z"/>
</g>
</svg>
