<?xml version="1.0" standalone="no"?>
<!DOCTYPE svg PUBLIC "-//W3C//DTD SVG 20010904//EN"
 "http://www.w3.org/TR/2001/REC-SVG-20010904/DTD/svg10.dtd">
<svg version="1.0" xmlns="http://www.w3.org/2000/svg"
 width="225.000000pt" height="225.000000pt" viewBox="0 0 225.000000 225.000000"
 preserveAspectRatio="xMidYMid meet">

<g transform="translate(0.000000,225.000000) scale(0.100000,-0.100000)"
fill="#000000" stroke="none">
<path d="M1029 1971 c-37 -36 -39 -42 -39 -98 l0 -59 -57 -19 c-127 -43 -240
-146 -299 -270 -62 -131 -67 -161 -71 -486 l-5 -296 -89 -89 c-87 -87 -89 -90
-89 -136 l0 -48 745 0 745 0 0 48 c0 46 -2 49 -89 136 l-89 89 -5 296 c-4 325
-9 355 -71 486 -59 124 -172 227 -299 270 l-57 19 0 59 c0 56 -2 62 -39 98
-36 36 -43 39 -96 39 -53 0 -60 -3 -96 -39z m243 -358 c62 -28 144 -106 174
-165 49 -97 54 -139 54 -475 l0 -313 -375 0 -375 0 0 313 c0 336 5 378 54 475
24 48 101 128 147 152 84 46 235 51 321 13z"/>
<path d="M940 355 c0 -23 28 -86 48 -109 47 -52 146 -70 217 -37 48 22 69 44
90 94 29 70 36 67 -170 67 -160 0 -185 -2 -185 -15z"/>
</g>
</svg>
