<?xml version="1.0" standalone="no"?>
<!DOCTYPE svg PUBLIC "-//W3C//DTD SVG 20010904//EN"
 "http://www.w3.org/TR/2001/REC-SVG-20010904/DTD/svg10.dtd">
<svg version="1.0" xmlns="http://www.w3.org/2000/svg"
 width="1046.000000pt" height="1046.000000pt" viewBox="0 0 1046.000000 1046.000000"
 preserveAspectRatio="xMidYMid meet">

<g transform="translate(0.000000,1046.000000) scale(0.100000,-0.100000)"
fill="#000000" stroke="none">
<path d="M4900 10419 c-906 -56 -1770 -345 -2530 -845 -312 -205 -535 -388
-815 -668 -439 -439 -739 -860 -1003 -1406 -184 -379 -302 -713 -388 -1090
-226 -1006 -160 -2039 193 -2980 259 -692 640 -1292 1157 -1819 834 -850 1898
-1377 3071 -1521 1366 -167 2732 209 3816 1051 385 299 731 656 1021 1054 762
1046 1100 2343 952 3645 -170 1496 -997 2853 -2259 3706 -939 635 -2075 943
-3215 873z m835 -323 c981 -110 1850 -475 2610 -1094 167 -137 520 -490 657
-657 569 -698 929 -1502 1062 -2375 43 -282 51 -397 51 -740 0 -343 -8 -458
-51 -740 -131 -857 -495 -1679 -1036 -2341 l-93 -114 -6 290 c-6 298 -12 349
-56 495 -44 148 -164 404 -249 530 -614 917 -2258 1464 -3954 1315 -1090 -96
-2042 -469 -2591 -1015 -140 -139 -240 -267 -318 -409 -63 -113 -62 -111 -172
-420 -55 -157 -73 -288 -73 -543 0 -126 -1 -228 -2 -228 -7 0 -204 253 -270
345 -498 703 -794 1500 -886 2385 -17 165 -17 735 0 900 104 1006 470 1892
1100 2665 137 167 490 520 657 657 772 629 1715 1017 2665 1098 69 6 143 12
165 14 98 10 659 -3 790 -18z"/>
<path d="M5000 9618 c-140 -13 -326 -53 -480 -103 -591 -194 -1074 -618 -1341
-1180 -528 -1112 -62 -2446 1047 -2991 790 -387 1738 -284 2427 265 472 376
782 951 836 1551 96 1046 -539 2018 -1535 2350 -310 103 -628 139 -954 108z"/>
</g>
</svg>
