<?xml version="1.0" standalone="no"?>
<!DOCTYPE svg PUBLIC "-//W3C//DTD SVG 20010904//EN"
 "http://www.w3.org/TR/2001/REC-SVG-20010904/DTD/svg10.dtd">
<svg version="1.0" xmlns="http://www.w3.org/2000/svg"
 width="225.000000pt" height="225.000000pt" viewBox="0 0 225.000000 225.000000"
 preserveAspectRatio="xMidYMid meet">

<g transform="translate(0.000000,225.000000) scale(0.100000,-0.100000)"
fill="#000000" stroke="none">
<path d="M385 1796 c-146 -35 -247 -136 -280 -280 -13 -57 -15 -128 -13 -430
l3 -361 26 -56 c48 -103 130 -173 235 -203 67 -19 758 -31 835 -15 102 22 179
73 233 153 61 92 65 120 68 531 3 367 3 370 -20 427 -46 115 -175 219 -286
232 -23 3 -201 7 -396 9 -257 4 -369 1 -405 -7z m853 -105 c66 -30 135 -105
157 -171 14 -43 16 -96 13 -407 -3 -351 -4 -359 -27 -410 -30 -68 -102 -135
-169 -157 -45 -15 -94 -17 -434 -14 -364 3 -385 4 -428 24 -96 45 -154 120
-170 221 -5 32 -5 208 -1 398 l7 340 26 50 c33 64 69 97 138 130 l55 25 390
-2 c387 -3 390 -3 443 -27z"/>
<path d="M564 1417 l-29 -25 -3 -248 c-2 -137 0 -259 3 -272 8 -34 41 -62 72
-62 16 0 116 50 246 121 228 128 255 150 241 203 -3 13 -15 33 -27 44 -42 38
-411 254 -442 259 -24 4 -38 -1 -61 -20z m294 -207 c78 -47 142 -88 142 -91 0
-9 -381 -221 -387 -215 -3 3 -2 104 2 226 l7 220 47 -27 c26 -16 110 -66 189
-113z"/>
<path d="M1984 1646 c-18 -8 -119 -66 -226 -130 l-195 -115 -6 -83 c-10 -117
-8 -470 1 -486 8 -12 252 -160 377 -229 108 -59 189 -36 214 61 7 30 11 190
11 473 0 387 -2 431 -18 463 -28 57 -91 75 -158 46z m88 -93 c8 -38 -5 -869
-14 -886 -13 -26 -29 -19 -235 101 l-182 107 0 235 -1 235 188 112 c187 112
237 131 244 96z"/>
</g>
</svg>
