<?xml version="1.0" standalone="no"?>
<!DOCTYPE svg PUBLIC "-//W3C//DTD SVG 20010904//EN"
 "http://www.w3.org/TR/2001/REC-SVG-20010904/DTD/svg10.dtd">
<svg version="1.0" xmlns="http://www.w3.org/2000/svg"
 width="225.000000pt" height="225.000000pt" viewBox="0 0 225.000000 225.000000"
 preserveAspectRatio="xMidYMid meet">

<g transform="translate(0.000000,225.000000) scale(0.100000,-0.100000)"
fill="#000000" stroke="none">
<path d="M349 1902 c-124 -33 -230 -116 -292 -230 -51 -93 -57 -152 -57 -547
0 -395 6 -453 57 -548 61 -114 196 -213 322 -237 72 -13 1420 -13 1492 0 181
34 334 190 368 374 17 94 14 754 -4 839 -36 170 -165 305 -334 349 -59 15
-137 17 -776 17 -639 0 -717 -2 -776 -17z m811 -607 c171 -86 313 -162 317
-171 3 -8 1 -20 -4 -25 -21 -21 -619 -300 -638 -297 -20 3 -20 10 -23 313 -1
170 0 315 3 322 2 7 11 13 20 13 8 0 155 -70 325 -155z"/>
</g>
</svg>
